<svg width="134" height="48" viewBox="0 0 134 48" fill="none" xmlns="http://www.w3.org/2000/svg">
<rect x="0.5" y="0.5" width="133" height="47" rx="11.5" fill="white"/>
<rect x="0.5" y="0.5" width="133" height="47" rx="11.5" stroke="#F1F1F1"/>
<path d="M25.6 30L25.584 18.8H24.272L19.664 26.672L14.992 18.8H13.68V30H15.216V21.888L19.264 28.64H20L24.048 21.84L24.064 30H25.6ZM32.3693 30.096C34.9133 30.096 36.7693 28.288 36.7693 25.76C36.7693 23.232 34.9133 21.44 32.3693 21.44C29.8253 21.44 27.9533 23.232 27.9533 25.76C27.9533 28.288 29.8253 30.096 32.3693 30.096ZM32.3693 28.752C30.7373 28.752 29.5053 27.568 29.5053 25.76C29.5053 23.952 30.7373 22.784 32.3693 22.784C34.0013 22.784 35.2173 23.952 35.2173 25.76C35.2173 27.568 34.0013 28.752 32.3693 28.752ZM43.4215 21.44C42.0775 21.44 40.9895 21.936 40.3655 22.8V21.52H38.8935V30H40.4295V25.632C40.4295 23.792 41.4855 22.816 43.1175 22.816C44.5735 22.816 45.4055 23.632 45.4055 25.296V30H46.9415V25.12C46.9415 22.624 45.4855 21.44 43.4215 21.44ZM54.0721 28.4C53.7521 28.656 53.3201 28.8 52.8721 28.8C52.0241 28.8 51.5441 28.288 51.5441 27.376V22.784H53.9761V21.52H51.5441V19.664H50.0081V21.52H48.5681V22.784H50.0081V27.44C50.0081 29.152 50.9841 30.096 52.6961 30.096C53.3841 30.096 54.0881 29.904 54.5521 29.504L54.0721 28.4ZM60.9371 21.44C59.6411 21.44 58.5851 21.904 57.9451 22.72V18.128H56.4091V30H57.9451V25.632C57.9451 23.792 59.0011 22.816 60.6331 22.816C62.0891 22.816 62.9211 23.632 62.9211 25.296V30H64.4571V25.12C64.4571 22.624 63.0011 21.44 60.9371 21.44ZM67.2998 30H68.8358V18.128H67.2998V30ZM77.7685 21.52L74.8405 28.304L71.8805 21.52H70.2805L74.0245 29.984L73.7525 30.576C73.3365 31.552 72.8725 31.888 72.1365 31.888C71.5605 31.888 71.0325 31.664 70.6165 31.264L69.9605 32.416C70.4885 32.928 71.3205 33.2 72.1365 33.2C73.4325 33.2 74.4085 32.64 75.1605 30.848L79.2725 21.52H77.7685Z" fill="#064061"/>
<path d="M117.92 20.95L111.4 27.47C110.63 28.24 109.37 28.24 108.6 27.47L102.08 20.95" stroke="#064061" stroke-width="1.5" stroke-miterlimit="10" stroke-linecap="round" stroke-linejoin="round"/>
</svg>
